<?xml version="1.0" encoding="utf-8"?>
<!-- Generator: Adobe Illustrator 18.0.0, SVG Export Plug-In . SVG Version: 6.00 Build 0)  -->
<!DOCTYPE svg PUBLIC "-//W3C//DTD SVG 1.1//EN" "http://www.w3.org/Graphics/SVG/1.1/DTD/svg11.dtd" [
	<!ENTITY ns_extend "http://ns.adobe.com/Extensibility/1.0/">
	<!ENTITY ns_ai "http://ns.adobe.com/AdobeIllustrator/10.0/">
	<!ENTITY ns_graphs "http://ns.adobe.com/Graphs/1.0/">
	<!ENTITY ns_vars "http://ns.adobe.com/Variables/1.0/">
	<!ENTITY ns_imrep "http://ns.adobe.com/ImageReplacement/1.0/">
	<!ENTITY ns_sfw "http://ns.adobe.com/SaveForWeb/1.0/">
	<!ENTITY ns_custom "http://ns.adobe.com/GenericCustomNamespace/1.0/">
	<!ENTITY ns_adobe_xpath "http://ns.adobe.com/XPath/1.0/">
]>
<svg version="1.1" id="interactive-svg" xmlns:x="&ns_extend;" xmlns:i="&ns_ai;" xmlns:graph="&ns_graphs;"
	 xmlns="http://www.w3.org/2000/svg" xmlns:xlink="http://www.w3.org/1999/xlink" x="0px" y="0px" width="768px" height="1024px"
	 viewBox="0 0 768 1024" enable-background="new 0 0 768 1024" xml:space="preserve">
<metadata>
	<sfw  xmlns="&ns_sfw;">
		<slices></slices>
		<sliceSourceBounds  height="593" width="659.1" y="138.2" x="-364.6" bottomLeftOrigin="true"></sliceSourceBounds>
	</sfw>
</metadata>
<rect x="0" y="-198.1" fill-rule="evenodd" clip-rule="evenodd" fill="none" width="233.7" height="70"/>
<text transform="matrix(1 0 0 1 1.983643e-04 -189.6004)"><tspan x="0" y="0" font-family="'MyriadPro-Regular'" font-size="12">Kentucky preseason rank #1</tspan><tspan x="0" y="28.8" font-family="'MyriadPro-Regular'" font-size="12">Duke preseason #4 </tspan></text>
<rect id="uk_x5F_bar" x="361.7" y="25.6" width="22.7" height="173.5"/>
<polygon id="uk_x5F_arrow" points="370.5,90.2 370.2,129.6 336.2,109.6 "/>
<rect x="404" y="103.6" fill-rule="evenodd" clip-rule="evenodd" fill="none" width="255.1" height="17.4"/>
<text id="uk_x5F_preseason_x5F_title" transform="matrix(1 0 0 1 416.7957 118.4868)" font-family="'Jaapokki-Regular'" font-size="20">KENTUCKY PRESEASON</text>
<circle id="uk_x5F_preseason_x5F_circle" fill-rule="evenodd" clip-rule="evenodd" fill="#0D71BA" stroke="#0062A5" stroke-miterlimit="10" cx="209.8" cy="112.3" r="100.9"/>
<g id="uk-title">
	<polygon fill-rule="evenodd" clip-rule="evenodd" stroke="#000000" stroke-miterlimit="10" points="215.8,93 216.7,93 214.7,88.6 
		211.4,91.7 211.4,93 213.6,93 213.6,103 195.8,103 195.8,93 198.6,93 198.6,84.9 194.4,84.9 187.3,76.4 187.3,55.9 184.6,55.9 
		184.6,45.4 202.4,45.4 202.4,55.9 200.4,55.9 200.4,62.6 208.6,62.6 208.6,55.9 206.3,55.9 206.3,45.4 223.9,45.4 223.9,55.9 
		221.9,55.9 221.9,62.6 232.7,62.6 232.7,72.6 231.1,72.6 223,80.2 228.9,93 233,93 233,103 215.8,103 215.8,93 215.8,93 	"/>
	<polygon fill-rule="evenodd" clip-rule="evenodd" fill="#0062A5" stroke="#000000" stroke-miterlimit="10" points="188.2,48.9 
		198.8,48.9 198.8,51.9 196.6,51.9 196.6,63.2 195.6,63.2 195.6,72.6 198.3,72.6 198.3,81 196.3,81 191,74.8 191,51.9 188.2,51.9 
		188.2,48.9 188.2,48.9 	"/>
	<polygon fill-rule="evenodd" clip-rule="evenodd" fill="#0062A5" stroke="#000000" stroke-miterlimit="10" points="209.8,48.9 
		220.1,48.9 220.1,51.9 217.8,51.9 217.8,62.6 215.3,62.6 215.3,72 216.3,72 211,77.1 211.1,72 213.4,72 213.4,62.6 212.3,62.6 
		212.3,51.9 209.8,51.9 209.8,48.9 209.8,48.9 	"/>
	<polygon fill-rule="evenodd" clip-rule="evenodd" fill="#0062A5" stroke="#000000" stroke-miterlimit="10" points="199.3,66.1 
		209.8,66.1 209.8,69.4 207.4,69.4 207.4,85 223.2,69.4 219.1,69.4 219.1,66.3 229.3,66.3 229.3,69 218.7,79.6 226.5,96.4 
		229.6,96.4 229.6,99.7 219.4,99.7 219.4,96.4 222.1,96.4 215.6,82.7 207.6,90.6 207.6,96.4 210,96.4 210,99.7 199.9,99.7 
		199.9,96.4 202.2,96.4 202.2,69.6 199.3,69.6 199.3,66.1 199.3,66.1 	"/>
</g>
<rect x="136.4" y="121" fill-rule="evenodd" clip-rule="evenodd" fill="none" width="144.8" height="75.9"/>
<text id="preseason_x5F_detail" transform="matrix(1 0 0 1 140.7886 131.3789)"><tspan x="0" y="0" fill="#FFFFFF" font-family="'Jaapokki-Regular'" font-size="14">Kentucky was AP Poll </tspan><tspan x="1.5" y="16.8" fill="#FFFFFF" font-family="'Jaapokki-Regular'" font-size="14">#1 ranked preseason </tspan><tspan x="17.7" y="33.6" fill="#FFFFFF" font-family="'Jaapokki-Regular'" font-size="14">basketball team</tspan></text>
<g id="duke">
	<rect id="duke_x5F_bar" x="361.6" y="202.5" fill="#2E358F" width="22.7" height="173.5"/>
	<polygon id="duke_x5F_arrow" fill="#2E358F" points="410,290.6 376.7,311.6 375.1,272.3 	"/>
	<rect x="91.3" y="283.3" fill-rule="evenodd" clip-rule="evenodd" fill="none" width="255.1" height="17.4"/>
	
		<text id="duke_x5F_preseason_x5F_title" transform="matrix(1 0 0 1 131.4841 298.1465)" fill="#2E358F" font-family="'Jaapokki-Regular'" font-size="20">DUKE PRESEASON</text>
	<g id="duke-badge">
		<g>
			
				<circle id="duke-circle" fill-rule="evenodd" clip-rule="evenodd" stroke="#0062A5" stroke-miterlimit="10" cx="533" cy="291.9" r="100.9"/>
			<g id="duke-title">
				<g>
					<path fill="#2B3189" d="M538.8,230.3l8,13v29.9l-8,13h17.5c6.6,0,12-5.1,12-11.7v-32.2c0-6.6-5.3-11.9-12-11.9H538.8
						L538.8,230.3z"/>
					<polygon fill="#2B3189" points="502.1,286.1 510.1,273.1 510.1,243.2 502.1,230.3 536.9,230.3 529,243.2 529,273.1 
						536.9,286.1 					"/>
					<path fill="#FFFFFF" d="M531.1,239.6c0,0,2.7-5.3,5.9-5.1l-0.8,5.8l0.7,0.1c0,0,0.8-3.2,0.6-3.6c0,0,2.5,1.2,1.8,4.7
						c0,0,4.1,1.8,6,8.6l1.4,1.7l-0.2,1.5c0,0,1.4,1.3,1.7,2c0,0,3.6,5.9,3.8,8.8c0,0,0.6,0.5-4.5,0.4c0,0-0.1,2.5-1.7,2.5
						c0,0,2,1.6,0.3,3.4c0,0,1.8,0.4,3.1,2.6c0,0,2.5,4.6,3.3,6.3c0,0,2.1,4.4-1.3,2.8l-4.5-2.6c0,0,0.9,4.3-1.3,3.5
						c0,0-4.3-1.3-10-4.7c0,0-6.5-2.4-9.5-0.9c0,0-4,0.9-9.1,4.6c0,0-1.4-4.7,1.7-8.8c0,0,1.3-0.1,0.1-1.6c0,0-0.5-1.5,0.8-1.7
						c0,0,1.2-1.1,0.1-2.1c0,0-0.8-1.7,0.3-3.4c0,0,0.6-0.3-0.2-1.6c0,0-4.5-5.4-3.5-11.8C516.2,251.1,517,237,531.1,239.6
						L531.1,239.6z"/>
					<path fill="#2B3189" d="M532.6,243.6c0,0,0.8-7.4,3.8-8.4c0,0-1.4,3.4-0.8,5.2c0,0,0.3,2,1.8,0.4c0,0,0.7-1.1,0.7-2.4
						c0,0,0.9,1.6,0.8,3.7c0,0,3.6,2,5.1,7.1c0,0,1.3,2.6,1.7,3l-0.4,1.2l2.1,2.1l3.4,7.4c0,0,0.5,0.9-0.5,1.1l-3.6-0.1
						c0,0,0.7,2.2-1.6,2.2l-0.4,0.5c0,0,1.8,2.2,0.9,2.5c0,0-0.3,0.7-1.1,0.8c0,0,3.7,2.9,4,4.2l3,5.7c0,0,1.3,2.5-1.4,0.8
						c0,0-7.8-4-9.4-4.2c0,0-2.6-0.9-0.5,0.5l5.4,2.4c0,0,1.1,4.1-1.5,2.4c0,0-9.5-4.7-12.7-5c0,0-4.6-2.1-13.7,3.4
						c0,0-1.2-4.1,3-7.4c0,0-2.1-3.3,1.1-2c0,0,0.3,2.2,4.2,2.6c0,0-5.3-4.1-5.7-5.7c0,0-0.6-4.6,2.4-2l4.5,3.2c0,0,0.5,0-0.7-1.2
						c0,0-4-2.5-5.2-4.4c0,0-6.6-5-4-14.1c0,0,0.7-9.2,11.2-9c0,0,3.2,0.1,1.3,1.8c0,0-0.8,1.8,0.9,2.4
						C531.1,244.4,532.3,245,532.6,243.6L532.6,243.6z"/>
					<path fill="#FFFFFF" d="M538.1,248.1c0,0-2.2,0-0.3,1.1l1.6,1.8c0,0-1.2,0.7-1.1,1.3c0,0,0.8,0,1.7-0.4c0,0,1.2,1.3,0.9,2.1
						c0,0-0.4,1.6,1.5,0.5C542.5,254.5,545.4,249.7,538.1,248.1L538.1,248.1z"/>
					<path fill="#FFFFFF" d="M528.4,252.7c0,0,1.2,3.7,0.8-0.5c0,0-2-3.2-2.7-3.4c0,0-2.4-2.1-1.8-4.1c0,0-2.1,0.5-2.4,6.7
						c0,0,0,5.5,2.2,9.3c0,0,2,3.8,5.2,5.3c0,0,1.2-3.2,0.1-5.9c0,0-0.1,4.2-0.7,4.5c0,0-8.7-5.4-4.9-17.8c0,0,0.8,2.1,2.1,2.9
						C526.2,249.7,528.1,251.5,528.4,252.7L528.4,252.7z"/>
					<path fill="#FFFFFF" d="M525.5,250.6c0,0-2.1-3.1-0.7,0.4l2.4,4.6c0,0-0.6,2.4,0.3,3c0,0,0.9,1.8,0.9-0.5c0,0-1.5-0.9-0.2-2.4
						L525.5,250.6L525.5,250.6z"/>
					<path fill="#FFFFFF" d="M543.8,274.2c0,0,4.4,1.8,0.6-1.8c0,0-0.1-0.2,0.1,0c1.3,1.1,4.2,2.7,1-0.6c-0.9-0.9-2.4-1.5-2.8-2
						c-0.2-0.2-0.2-1,0.4-0.9c0,0,2.9,0.8,1.5-1.1c0,0-2.4-1.7-6-2.5c0,0-0.8,0.1-0.5,1.6c0,0-0.1,1.6-0.7-0.8c0,0-1.2-5,2-4.9
						c0,0,2.9,0.3,4.7-1.1c0,0,3.2-2,1.1,0c0,0-2.5,2.4,0.2,1.2c0,0,3-0.1,3,1.6l1.1,0.1c0,0,0.8,0,0.1-1.1l-3.2-6.2
						c0,0-1.5-1.7-2.1-1.2c0,0-0.5,0.5,0.5,1.6l-1.4-0.3c0,0-4.5,3.7-8.7,0.2c0,0-2.1-1.8-1.2,1.3c0,0,1.3,1.6-0.4,3.6
						c0,0-4.2,5.8,0.5,11.5c0,0,7.5,3.6,11.3,4.6c1.2,0.3,3,0.1-1.5-1.5C544.9,275.7,545.5,275.3,543.8,274.2L543.8,274.2z"/>
					<path fill="#2B3189" d="M536.4,266c0,0-0.4-3.6,0-4.1c0,0,0.3-2.1-1.3-0.7C535.1,261.3,534.7,265.1,536.4,266L536.4,266z"/>
					<path fill="#FFFFFF" d="M541.6,262.7c0,0,4.1,1.2,4.1,2l0.3-1.6c0,0,3.4-0.7-0.4-0.8l-1.9,0.3c0,0,0.9-1.1-0.9-0.5L541.6,262.7
						L541.6,262.7z"/>
					<path fill="#FFFFFF" d="M540.1,263.1c0,0-2.2-0.3-0.9,1.4l4.7,2l0.9-1.7L540.1,263.1L540.1,263.1z"/>
					<path fill="#FFFFFF" d="M539.8,246.5c-0.9-0.6-2.3-1.6-3.6-1.6c-1.4,0-2,1.5-1.9,2.9c0.5-0.6,1.7-1.5,2.1-1.7
						C536.8,246,538.8,246.3,539.8,246.5L539.8,246.5z"/>
					<path fill="#2B3189" d="M567,284.2c0.1,0,0.2,0,0.2,0.1c0,0,0.1,0.1,0.1,0.2c0,0.1,0,0.2-0.1,0.2c0,0-0.1,0-0.2,0.1v0.2
						l0.3,0.5h0.3l-0.3-0.6c0.1,0,0.2-0.1,0.2-0.1c0.1-0.1,0.1-0.2,0.1-0.3c0-0.1,0-0.2-0.1-0.3c-0.1-0.1-0.2-0.1-0.4-0.1L567,284.2
						L567,284.2z M567,286v-0.2c0.1,0,0.2,0,0.4-0.1c0.1,0,0.2-0.1,0.3-0.2c0.1-0.1,0.2-0.2,0.2-0.3c0.1-0.1,0.1-0.3,0.1-0.4
						c0-0.2,0-0.3-0.1-0.4c-0.1-0.1-0.1-0.3-0.2-0.3c-0.1-0.1-0.2-0.2-0.3-0.2c-0.1,0-0.2-0.1-0.4-0.1v-0.2c0.1,0,0.2,0,0.3,0.1
						c0.1,0,0.3,0.1,0.4,0.2c0.2,0.1,0.3,0.3,0.3,0.4c0.1,0.2,0.1,0.3,0.1,0.5c0,0.2,0,0.3-0.1,0.5c0,0.2-0.1,0.3-0.3,0.4
						c-0.1,0.1-0.3,0.2-0.4,0.3C567.3,285.9,567.1,285.9,567,286L567,286z M566.7,284.2h0.2c0,0,0,0,0.1,0V284c0,0,0,0,0,0h-0.5v1.4
						h0.3v-0.6h0.3l0,0.1v-0.2c0,0,0,0-0.1,0h-0.2L566.7,284.2L566.7,284.2z M567,283.5v0.2c0,0,0,0,0,0c-0.2,0-0.3,0-0.4,0.1
						c-0.1,0-0.2,0.1-0.3,0.2c-0.1,0.1-0.2,0.2-0.2,0.4c0,0.1-0.1,0.3-0.1,0.4c0,0.1,0,0.3,0.1,0.4c0.1,0.1,0.1,0.2,0.2,0.3
						c0.1,0.1,0.2,0.2,0.3,0.2c0.1,0.1,0.3,0.1,0.4,0.1c0,0,0,0,0.1,0v0.2c0,0,0,0,0,0c-0.2,0-0.3,0-0.5-0.1
						c-0.2-0.1-0.3-0.2-0.4-0.3c-0.1-0.1-0.2-0.3-0.3-0.4c-0.1-0.2-0.1-0.3-0.1-0.5c0-0.1,0-0.3,0.1-0.4c0-0.1,0.1-0.2,0.2-0.3
						c0.1-0.2,0.3-0.3,0.4-0.3C566.6,283.6,566.8,283.5,567,283.5C567,283.5,567,283.5,567,283.5L567,283.5z"/>
				</g>
			</g>
		</g>
		<rect x="440" y="310.6" fill-rule="evenodd" clip-rule="evenodd" fill="none" width="190.3" height="55.6"/>
		<text id="duke-detail" transform="matrix(1 0 0 1 445.1909 321.0465)"><tspan x="0" y="0" fill="#FFFFFF" font-family="'Jaapokki-Regular'" font-size="14">Duke was AP Poll #4 ranked </tspan><tspan x="6.1" y="16.8" fill="#FFFFFF" font-family="'Jaapokki-Regular'" font-size="14">preseason basketball team</tspan></text>
	</g>
</g>
</svg>
