<?xml version="1.0" encoding="utf-8"?>
<!-- Generator: Adobe Illustrator 18.0.0, SVG Export Plug-In . SVG Version: 6.00 Build 0)  -->
<!DOCTYPE svg PUBLIC "-//W3C//DTD SVG 1.1//EN" "http://www.w3.org/Graphics/SVG/1.1/DTD/svg11.dtd" [
	<!ENTITY ns_extend "http://ns.adobe.com/Extensibility/1.0/">
	<!ENTITY ns_ai "http://ns.adobe.com/AdobeIllustrator/10.0/">
	<!ENTITY ns_graphs "http://ns.adobe.com/Graphs/1.0/">
	<!ENTITY ns_vars "http://ns.adobe.com/Variables/1.0/">
	<!ENTITY ns_imrep "http://ns.adobe.com/ImageReplacement/1.0/">
	<!ENTITY ns_sfw "http://ns.adobe.com/SaveForWeb/1.0/">
	<!ENTITY ns_custom "http://ns.adobe.com/GenericCustomNamespace/1.0/">
	<!ENTITY ns_adobe_xpath "http://ns.adobe.com/XPath/1.0/">
]>
<svg version="1.1" id="InteractiveSVG" xmlns:x="&ns_extend;" xmlns:i="&ns_ai;" xmlns:graph="&ns_graphs;"
	 xmlns="http://www.w3.org/2000/svg" xmlns:xlink="http://www.w3.org/1999/xlink" x="0px" y="0px" width="1024px" height="1388px"
	 viewBox="0 0 1024 1388" enable-background="new 0 0 1024 1388" xml:space="preserve">
<metadata>
	<sfw  xmlns="&ns_sfw;">
		<slices></slices>
		<sliceSourceBounds  height="1387" width="1023.9" y="-674" x="-492" bottomLeftOrigin="true"></sliceSourceBounds>
	</sfw>
</metadata>
<g id="background">
	<rect y="298" fill="#E8EFEF" width="1023.9" height="1090"/>
	<g>
		<line fill="none" stroke="#CADBDD" stroke-miterlimit="10" x1="950.4" y1="1252.5" x2="565.5" y2="1252.5"/>
		<line fill="none" stroke="#CADBDD" stroke-miterlimit="10" x1="950.4" y1="1177.6" x2="565.5" y2="1177.6"/>
		<line fill="none" stroke="#CADBDD" stroke-miterlimit="10" x1="950.4" y1="1102.7" x2="565.5" y2="1102.7"/>
		<line fill="none" stroke="#CADBDD" stroke-miterlimit="10" x1="950.4" y1="1027.8" x2="565.5" y2="1027.8"/>
		<line fill="none" stroke="#CADBDD" stroke-miterlimit="10" x1="950.4" y1="952.8" x2="565.5" y2="952.8"/>
		<line fill="none" stroke="#CADBDD" stroke-miterlimit="10" x1="950.4" y1="877.9" x2="565.5" y2="877.9"/>
		<line fill="none" stroke="#CADBDD" stroke-miterlimit="10" x1="950.4" y1="803" x2="565.5" y2="803"/>
		<line fill="none" stroke="#CADBDD" stroke-miterlimit="10" x1="950.4" y1="728.1" x2="565.5" y2="728.1"/>
		<line fill="none" stroke="#CADBDD" stroke-miterlimit="10" x1="950.4" y1="653.2" x2="565.5" y2="653.2"/>
		<line fill="none" stroke="#CADBDD" stroke-miterlimit="10" x1="950.4" y1="578.3" x2="565.5" y2="578.3"/>
		<line fill="none" stroke="#CADBDD" stroke-miterlimit="10" x1="950.4" y1="503.4" x2="565.5" y2="503.4"/>
		<line fill="none" stroke="#CADBDD" stroke-miterlimit="10" x1="950.4" y1="428.5" x2="565.5" y2="428.5"/>
	</g>
	<g>
		<line fill="none" stroke="#CADBDD" stroke-miterlimit="10" x1="458.5" y1="1252.5" x2="89.5" y2="1252.5"/>
		<line fill="none" stroke="#CADBDD" stroke-miterlimit="10" x1="458.5" y1="1177.6" x2="89.5" y2="1177.6"/>
		<line fill="none" stroke="#CADBDD" stroke-miterlimit="10" x1="458.5" y1="1102.7" x2="89.5" y2="1102.7"/>
		<line fill="none" stroke="#CADBDD" stroke-miterlimit="10" x1="458.5" y1="1027.8" x2="89.5" y2="1027.8"/>
		<line fill="none" stroke="#CADBDD" stroke-miterlimit="10" x1="458.5" y1="952.8" x2="89.5" y2="952.8"/>
		<line fill="none" stroke="#CADBDD" stroke-miterlimit="10" x1="458.5" y1="877.9" x2="89.5" y2="877.9"/>
		<line fill="none" stroke="#CADBDD" stroke-miterlimit="10" x1="458.5" y1="803" x2="89.5" y2="803"/>
		<line fill="none" stroke="#CADBDD" stroke-miterlimit="10" x1="458.5" y1="728.1" x2="89.5" y2="728.1"/>
		<line fill="none" stroke="#CADBDD" stroke-miterlimit="10" x1="458.5" y1="653.2" x2="89.5" y2="653.2"/>
		<line fill="none" stroke="#CADBDD" stroke-miterlimit="10" x1="458.5" y1="578.3" x2="89.5" y2="578.3"/>
		<line fill="none" stroke="#CADBDD" stroke-miterlimit="10" x1="458.5" y1="503.4" x2="89.5" y2="503.4"/>
		<line fill="none" stroke="#CADBDD" stroke-miterlimit="10" x1="458.5" y1="428.5" x2="89.5" y2="428.5"/>
	</g>
</g>
<g id="timeline">
	<g id="uk">
		<rect x="505.5" y="429" fill="#1B1464" width="17" height="107"/>
		<polyline fill="#1B1464" points="509.3,474.1 497,483.5 514.6,494.4 		"/>
		<g>
			<text transform="matrix(1 0 0 1 565.5449 494.2139)" fill="#1B1464" font-family="'ArialMT'" font-size="28.2251">UK</text>
		</g>
		<g id="uk-badge">
			<circle fill="#0071BC" cx="311.6" cy="484.3" r="130.5"/>
			<g id="uk-title_1_">
				<text transform="matrix(1 0 0 1 284.416 403.2793)" fill="#FFFFFF" font-family="'ArialMT'" font-size="28.2251">KENTUCKY</text>
			</g>
			<g id="UK-details">
				<rect x="219.1" y="530.2" fill="none" width="187" height="68"/>
				<text transform="matrix(1 0 0 1 219.7134 543.4023)" fill="#FFFFFF" font-family="'ArialMT'" font-size="18">KENTUCKY WAS AP POLL PRESEASON</text>
				<text transform="matrix(1 0 0 1 249.6372 565.0039)" fill="#FFFFFF" font-family="'ArialMT'" font-size="18">#1 RANKED BASKETBALL TEAM</text>
				<g id="uk-title">
					<polygon fill-rule="evenodd" clip-rule="evenodd" fill="#231F20" stroke="#231F20" stroke-miterlimit="10" points="331,489.7 
						332.2,489.7 329.4,483.8 324.9,488 324.9,489.7 327.9,489.7 327.9,503.4 303.7,503.4 303.7,489.7 307.6,489.7 307.6,478.6 
						301.8,478.6 292.1,467 292.1,439 288.4,439 288.4,424.7 312.6,424.7 312.6,439.1 310,439.1 310,448.2 321.1,448.2 321.1,439.1 
						318,439.1 318,424.7 342,424.7 342,439.1 339.3,439.1 339.3,448.2 354,448.2 354,461.9 351.8,461.9 340.8,472.3 348.9,489.7 
						354.5,489.7 354.5,503.4 331,503.4 331,489.7 331,489.7 					"/>
					<polygon fill-rule="evenodd" clip-rule="evenodd" fill="#0062A5" stroke="#231F20" stroke-miterlimit="10" points="
						293.3,429.5 307.8,429.5 307.8,433.6 304.8,433.6 304.8,449 303.5,449 303.5,461.9 307.1,461.9 307.1,473.3 304.4,473.3 
						297.1,464.8 297.1,433.6 293.3,433.6 293.3,429.5 293.3,429.5 					"/>
					<polygon fill-rule="evenodd" clip-rule="evenodd" fill="#0062A5" stroke="#231F20" stroke-miterlimit="10" points="
						322.8,429.6 336.8,429.6 336.8,433.6 333.8,433.6 333.8,448.2 330.3,448.2 330.3,461.1 331.6,461.1 324.5,468 324.5,461.1 
						327.7,461.1 327.7,448.2 326.3,448.2 326.3,433.6 322.8,433.6 322.8,429.6 322.8,429.6 					"/>
					<polygon fill-rule="evenodd" clip-rule="evenodd" fill="#0062A5" stroke="#231F20" stroke-miterlimit="10" points="308.5,453 
						322.8,453 322.8,457.6 319.5,457.6 319.5,478.8 341.1,457.5 335.5,457.5 335.5,453.2 349.3,453.2 349.3,456.9 335,471.4 
						345.6,494.3 349.8,494.3 349.8,498.8 335.9,498.8 335.9,494.3 339.6,494.3 330.8,475.6 319.8,486.4 319.8,494.3 323.1,494.3 
						323.1,498.8 309.2,498.8 309.2,494.3 312.4,494.3 312.4,457.8 308.5,457.8 308.5,453 308.5,453 					"/>
				</g>
			</g>
		</g>
	</g>
	<g id="design">
		<rect x="505.5" y="536" fill="#D1652F" width="17" height="135"/>
		<polyline fill="#D1652F" points="520.3,614.4 532.6,605.1 515,594.1 		"/>
		<text transform="matrix(1 0 0 1 413.2793 616.6328)" fill="#D1652F" font-family="'ArialMT'" font-size="28.2251">10AM</text>
		<g id="design-badge">
			<circle fill="#D1652F" cx="711" cy="604.5" r="130.5"/>
			<g id="design-title">
				<text transform="matrix(1 0 0 1 682.4639 523.5059)" fill="#FFFFFF" font-family="'ArialMT'" font-size="28.2251">DESIGN</text>
			</g>
			<g id="design-details">
				<rect x="616.5" y="650.4" fill="none" width="187" height="68"/>
				<text transform="matrix(1 0 0 1 630.1738 663.6289)" fill="#E8AD67" font-family="'ArialMT'" font-size="18">WORLDWIDE, A NEW WEB PAGE IS </text>
				<text transform="matrix(1 0 0 1 637.2568 685.2305)" fill="#E8AD67" font-family="'ArialMT'" font-size="18">DESIGNED EVERY 0.4 SECONDS</text>
				<g>
					<ellipse fill="#B24E2B" cx="702.7" cy="626.4" rx="28.3" ry="3.1"/>
					<path fill="#E8AD67" d="M747.8,571.1c-1-1.3-2.1-2.7-3.1-4c-0.1-0.1-0.1-0.1,0,0c-7-6.9-16.9-17.2-26.6-20.6
						c-6.8,0-35,29.9-34.1,31c3.1,4.1,8,7.7,11.6,11.3c6.8,6.6,14.4,18.1,22.9,22.4c1.9,1,13-11.3,14.4-12.7
						C740.2,591.3,756.1,581.4,747.8,571.1C746.8,569.8,748.9,572.4,747.8,571.1z"/>
					<path fill="#E8AD67" d="M747.7,565.3c-0.1-0.1-0.2-0.2-0.3-0.5C747.5,565,747.7,565.2,747.7,565.3z"/>
					<path fill="#FFCBA6" d="M674.9,620.2c0.2,0.3,0.4,0.6,0.6,0.9c0.2,0.1,0.5,0.3,0.7,0.4c0.1,0,0.2,0,0.3,0l42.6-9.3l-35-35
						l-9.2,42.2C674.9,619.7,674.9,619.9,674.9,620.2z"/>
					<path fill="#FF9740" d="M744.7,567c-5.5-5.3-9.4-9.9-15.9-14.4c-11,11.8-23.4,23.1-34.8,34.5c2.2,2.2,13,15.6,15.8,14.5
						c3.8-1.4,6.4-6.3,9.3-9.1C721.9,590,745.9,568.6,744.7,567C744.7,567,744.8,567.1,744.7,567z"/>
					<path fill="#FA871C" d="M747.8,571.1c-1.2-1.5-2.2-3.2-3.2-4.1c0.4,0.6-21.4,21.4-23.6,23.6c-1.9,1.9-12.6,10.9-10.9,12.6
						c2.8,2.9,5.6,6.3,8.6,9.1c1.1,1.1,9.5-8.6,11-10.1c5.2-5.2,9.5-9,14.8-14.3C751.1,581.2,753.7,578.4,747.8,571.1
						C746.8,569.8,749.3,573,747.8,571.1z"/>
					<path fill="#FFCBA6" d="M694.1,587.1c0,0,0-9.5-9.9-9.9l0.3,4.6L694.1,587.1z"/>
					<path fill="#FFCBA6" d="M718.8,611.9c0,0,0-9.5-9.9-9.9l0.3,4.6L718.8,611.9z"/>
					<path fill="#FFCBA6" d="M709.3,602.3c0,0,0-14.9-15.4-15.4l0.5,7.1L709.3,602.3z"/>
					<path fill="#3A2F19" d="M674.9,618.9c0,0.4,0,0.9,0,1.3c0.2,0.3,0.4,0.6,0.6,0.9c0.2,0.1,0.5,0.3,0.7,0.4c0.2,0,0.4,0,0.6,0.1
						l7.6-1.7l0,0c0,0,0-7.7-7.9-8v0l0,0L674.9,618.9z"/>
				</g>
			</g>
		</g>
	</g>
	<g id="complain">
		<rect x="505.5" y="860" fill="#6DBACC" width="17" height="283"/>
		<polyline fill="#6DBACC" points="520.3,1010.4 532.6,1001.1 515,990.1 		"/>
		<text transform="matrix(1 0 0 1 407.2793 1007.6328)" fill="#6DBACC" font-family="'ArialMT'" font-size="28.2251">12PM</text>
		<g id="complain-badge">
			<circle fill="#6DBACC" cx="717" cy="1000.5" r="130.5"/>
			<g id="complain-title">
				<text transform="matrix(1 0 0 1 680.0996 916.1816)" fill="#FFFFFF" font-family="'ArialMT'" font-size="24.3935">COMPLAIN</text>
				<text transform="matrix(1 0 0 1 684.5508 940.2686)" fill="#FFFFFF" font-family="'ArialMT'" font-size="24.3935">ABOUT IE</text>
			</g>
			<g id="complain-details">
				<rect x="622.9" y="1046.4" fill="none" width="187" height="68"/>
				<text transform="matrix(1 0 0 1 637.332 1059.6289)" fill="#B9E4EA" font-family="'ArialMT'" font-size="18">BROWSER QUIRKS CAN INCREASE </text>
				<text transform="matrix(1 0 0 1 646.9707 1081.2305)" fill="#B9E4EA" font-family="'ArialMT'" font-size="18">PRODUCTION TIME UP TO 71%</text>
				<g>
					<path fill="#004F84" d="M743.5,1005.5c-4.2,0-12.9-0.4-16.1-0.5c-3.2-0.1-4.6,5.5-11.5,5.5c-17.9,0-16.9-12-12-12
						c3.9,0,28.6,0,40.5-0.2c4.5-1.8,3.2-15-5.1-24.9c-8.8-10.5-18.2-10.8-18.2-10.8c7.3-5.1,18-5.9,21-4.6c3,1.4,3.6,0.3,3.6,0.3
						c-8.2-10.7-30.8,3.1-30.8,3.1c-30.2,2.6-33,29.4-33,29.4c2.7-3.3,7.8-6,9.4-7.5s1.6,0,1.6,0c-33,43.7,1.1,44.6-2.8,42.4
						c-3.9-2.2-2.7-13.6-2.7-13.6c1.1,1.3,9.8,15.3,28.7,14.6c18.9-0.7,26.8-16.4,27.8-19.1C744.4,1006.7,744.1,1006,743.5,1005.5z
						 M705.7,978.7c6.4-3.6,18.1-3,21.6,2.8s-0.4,6.6-1.9,7.3c-1.6,0.7-19.7,0-19.7,0C700,988.8,699.3,982.4,705.7,978.7z"/>
					<path opacity="0.56" fill="#0097C0" enable-background="new    " d="M737,978.5c-1.2,1-5.8-2.9-12-6c-6.1-3.2-12-4.6-11.9-6.2
						c0-1.5,7-2.6,14.4,1.2C734.9,971.3,738.2,977.6,737,978.5z"/>
					<path opacity="0.56" fill="#0097C0" enable-background="new    " d="M698.7,1009.8c5.7,4.2,17.2,7.8,10.6,8.7
						c-6.5,0.9-17.2-6.1-15.9-10C694.7,1004.6,696.6,1008.3,698.7,1009.8z"/>
					<ellipse fill="#448FAA" cx="713.7" cy="1032.4" rx="19.7" ry="2"/>
				</g>
			</g>
		</g>
	</g>
	<g id="build">
		<rect x="505.5" y="671" fill="#B1C482" width="17" height="189"/>
		<polyline fill="#B1C482" points="509.3,761.1 497,770.5 514.6,781.4 		"/>
		<text transform="matrix(1 0 0 1 558.6953 780.7109)" fill="#B1C482" font-family="'ArialMT'" font-size="28.2251">11AM</text>
		<g id="build-badge">
			<circle fill="#B1C482" cx="311" cy="772.5" r="130.5"/>
			<g id="build-title">
				<text transform="matrix(1 0 0 1 287.0991 691.5059)" fill="#FFFFFF" font-family="'ArialMT'" font-size="28.2251">BUILD</text>
			</g>
			<g id="build-details">
				<rect x="215.9" y="818.4" fill="none" width="187" height="68"/>
				<text transform="matrix(1 0 0 1 226.1045 831.6289)" fill="#EBF4CE" font-family="'ArialMT'" font-size="18">64% OF WEB DESIGNERS CONSIDER</text>
				<text transform="matrix(1 0 0 1 244.9507 853.2305)" fill="#EBF4CE" font-family="'ArialMT'" font-size="18">THEMSELVES SELF-TAUGHT</text>
				<g>
					<g>
						<path fill="#C5EAEA" d="M288.5,781.4c-7.4-4.4-14.8-8.7-22.2-13.1c-4.2-2.5-8.5-5-12.7-7.5c-3.3-1.9-2.4-3-2.4-7
							s-0.9-5.1,2.4-7c4.2-2.5,8.5-5,12.7-7.5c7.4-4.4,14.8-8.8,22.2-13.1c0,5.3,2.3,13.2-2.6,16c-6.8,3.9-13.6,7.8-20.5,11.7
							c6.5,3.7,13,7.3,19.5,11c2.4,1.4,3.6,1.3,3.6,4C288.5,773.1,288.5,777.3,288.5,781.4L288.5,781.4z"/>
						<path fill="#C5EAEA" d="M321.9,718.9c-3.7,14.1-7.4,28.3-11.1,42.4c-2,7.8-4.1,15.6-6.1,23.4c-1.4,5.4-7.6,3-12.6,3
							c3.7-14.1,7.4-28.3,11.2-42.4c2.1-7.8,4.1-15.6,6.2-23.4C310.8,716.5,316.9,718.9,321.9,718.9L321.9,718.9z"/>
						<path fill="#C5EAEA" d="M325.1,726.2c7.4,4.4,14.8,8.7,22.2,13.1c4.2,2.5,8.5,5,12.7,7.5c3.1,1.8,2.4,2.4,2.4,6.3
							c0,3.2,1.1,5.7-1.7,7.4c-4,2.4-8,4.7-12,7.1c-7.9,4.6-15.8,9.3-23.6,14c0-5.3-2.3-13.2,2.6-16c6.8-3.9,13.6-7.8,20.5-11.7
							c-6.5-3.7-13-7.3-19.4-11c-2.4-1.4-3.6-1.3-3.6-4C325.1,734.6,325.1,730.4,325.1,726.2L325.1,726.2z"/>
					</g>
					<g>
						<path fill="#D8EFEE" d="M262.6,749.8c3.5-2.5,7.2-4.4,11.1-6.6c3.6-2,6.6-4.5,10.2-6c0.3-1,0.6-2,1-2.9c0-1-0.1-2.1-0.4-3.4
							c-9.3,6.5-23.6,12.8-29,22c1.1-0.4,2.3-0.9,3.4-1.5C260.1,750.8,261.3,750.3,262.6,749.8z"/>
						<path fill="#D8EFEE" d="M296.6,785.7c1.6-1,2.8-2,3.7-4.3c1-2.4,1.9-4.9,2.7-7.3c1.9-5.9,3-12.1,4.8-18
							c1.9-6.1,3.2-12,4.4-18.4c0.9-5,2.4-9.8,3.7-14.7h-3.1c-0.4,0.2-0.8,0.5-1.1,0.8l-12.5,47.4c0.9,1.7,0.3,4.1-1.3,4.9l-2.5,9.3
							c0.3,0,0.6,0.1,0.9,0.2C296.4,785.6,296.5,785.7,296.6,785.7z"/>
						<path fill="#D8EFEE" d="M331.9,739.7c3.6,1.3,7.2,2.4,10.2,4.9c3.1,2.6,7.6,3.3,11,5.6c0.9,0.6,1.7,1.4,2.4,2.1
							c8.9-3.7-22.9-18.6-28.8-22c-0.2,1.7-0.1,3.1,0.1,4.4C328.3,736.7,329.5,738.9,331.9,739.7z"/>
					</g>
					<ellipse fill="#96A362" cx="304.7" cy="794.4" rx="28.3" ry="3.1"/>
					<path fill="#B0E2DE" d="M347.2,762.6c-3.5,2.5-7.2,4.4-11.1,6.6c-3.6,2-6.6,4.5-10.2,6c-0.3,1-0.6,2-1,2.9c0,1,0.1,2.1,0.4,3.4
						c9.3-6.5,23.6-12.8,29-22c-1.1,0.4-2.3,0.9-3.4,1.5C349.7,761.5,348.5,762.1,347.2,762.6z"/>
					<path fill="#B0E2DE" d="M268.6,768.8c0.8,0.6,1.5,1.1,2.3,1.7c1.6,0.9,3.2,1.9,4.7,3c3.8,2.7,8.5,4.5,12.7,6.7
						c0.1-1.5,0.1-2.8-0.2-4c-1.5-2-2.7-4.1-5.1-5c-3.6-1.3-7.2-2.4-10.2-4.9c-3.1-2.6-7.6-3.3-11-5.6c-0.9-0.6-1.7-1.4-2.4-2.1
						c-1.3,0.5-1.7,1.3-1.5,2.3C261.4,763.7,265,766.2,268.6,768.8z"/>
				</g>
			</g>
		</g>
	</g>
	<g id="beer">
		<rect x="505.5" y="1143" fill="#EAB83D" width="17" height="110"/>
		<polyline fill="#EAB83D" points="509.3,1190.1 497,1199.5 514.6,1210.4 		"/>
		<text transform="matrix(1 0 0 1 558.6953 1206.0137)" fill="#EAB83D" font-family="'ArialMT'" font-size="28.2251">3PM</text>
		<g id="beer-badge">
			<circle fill="#EAB83D" cx="313" cy="1190.5" r="130.5"/>
			<g id="beer-title">
				<text transform="matrix(1 0 0 1 290.5708 1109.5059)" fill="#FFFFFF" font-family="'ArialMT'" font-size="28.2251">BEER</text>
			</g>
			<g id="beer-details">
				<rect x="217.9" y="1236.4" fill="none" width="187" height="68"/>
				<text transform="matrix(1 0 0 1 236.0879 1249.6289)" fill="#EBF4CE" font-family="'ArialMT'" font-size="18">HEINEKEN IS THE #1 CHOICE OF</text>
				<text transform="matrix(1 0 0 1 240.1099 1271.2305)" fill="#EBF4CE" font-family="'ArialMT'" font-size="18">BEER AMONG WEB DESIGNERS</text>
				<g>
					<path fill="#D3A337" d="M343.8,1208c0,5.2-14.1,9.1-32.3,9.4c-18.1,0.8-32.2-3.1-32.5-8.3c-0.2-2,14.3-4.3,32.2-5.1
						C329.3,1203.8,343.9,1205.9,343.8,1208z"/>
					<path fill="#F6EEDB" d="M342.2,1193.5c-5.4,0.9-10.7,1.5-15.7,1.7c-15.4,0.5-30.6-3.3-45.9-4.4c0.1,7.2,0.4,14.7,0,16.1
						c-0.7,2.5,16.4,6.2,22.8,6.1c6.4,1.5,32.3-1.8,35.1-4.6c3-2,3.6-4,3.4-5.9C341.8,1200.9,342.1,1195.9,342.2,1193.5z"/>
					<path fill="#E2D6BC" d="M292.8,1204c6.6,1.5,13.4,2.4,20.1,2.2c7.4-0.2,14.7-1.4,21.9-3.9c2.3-0.8,4.7-1.4,7.1-2
						c-0.1-2,0.2-6.2,0.3-8.4c-5.4,1-10.7,1.8-15.7,2c-15.5,0.7-30.7-3.6-46-4.7c0.1,4,0.2,8,0.2,11
						C284.7,1201.6,288.7,1203.1,292.8,1204z"/>
					<path fill="#E2D6BC" d="M286.2,1193.6c0-0.9,0.1-1.6,0.4-2.4c-2-0.2-4-0.4-6-0.5c0.1,7.2,0.4,14.7,0,16.1
						c-0.3,0.8,2.5,2.5,6.2,1.8C286.5,1203.7,286.3,1198.7,286.2,1193.6z"/>
					<path fill="#E2D6BC" d="M341.9,1202.4c-0.2-1.5,0.1-6.6,0.3-8.9c-4.7,0.6-9.4,1-13.9,1c0.1,0.3,0.1,0.5,0.1,0.8
						c0,4.4-0.1,8.8-0.2,13.1c5,1.2,9.2,0.3,10.3-0.3C341.5,1206.5,342.2,1204.4,341.9,1202.4z"/>
					<path fill="#E2D6BC" d="M359.6,1163.2c-0.6-4-9.4-8.2-23.8-9.2c0.2,2,0.4,4,0.5,6.1c5.6,0.5,14.6,2.3,14.6,5.4
						c0,3.8,1.4,14.3,0,17.1c-1.1,2.1-11,2.4-13.3,2.4c0.3,3.2,0.6,6.5,1,9.7c0.1-0.8,0.1-1.3,0.1-1.3s2.6-0.3,10.1-2
						c7.5-1.8,10.2-9.3,10.9-15.1C360.3,1170.4,360.3,1167.8,359.6,1163.2z"/>
					<g>
						<path fill="#F6EEDB" d="M337.7,1186c3.5-0.1,9.2-0.6,10.7-2c-3.4,0.9-9.1,1-10.8,1.1C337.6,1185.3,337.6,1185.6,337.7,1186z"
							/>
						<path fill="#F6EEDB" d="M359.6,1163.2c-0.6-4-9.4-8.2-23.8-9.2c0,0.4,0.1,0.8,0.1,1.2c13,1.3,20.9,5.2,21.4,9
							c0.7,4.5,0.7,7.2,0,13c-0.6,4.8-2.6,10.9-7.6,13.8c6.7-2.2,9.2-9.3,9.9-14.8C360.3,1170.4,360.3,1167.8,359.6,1163.2z"/>
						<path fill="#F6EEDB" d="M338.5,1194.1c0,0.2,0,0.4,0.1,0.6c0-0.2,0-0.4,0-0.6C338.6,1194.1,338.5,1194.1,338.5,1194.1z"/>
					</g>
					<path fill="#F6EEDB" d="M348,1187.4c-2.2,0.9-5.6,1.5-10.2,1.6c0.1,1.2,0.2,2.4,0.4,3.6c1.5-0.3,3.9-0.8,7.2-1.5
						c1-0.2,1.9-0.6,2.7-1.1C348,1189.1,348,1188.2,348,1187.4z"/>
					<path fill="#F6EEDB" d="M354.3,1164.6c-0.3-2.2-6.3-5.7-18.3-7c0,0.5,0.1,1,0.1,1.6c4.9,0.6,14.7,2.5,14.7,7.4
						c0,1,0.1,2.7,0.2,4.5c0.1,1.4,0.2,2.7,0.2,4c0.5,3.3,0.5,6.7,0.5,10c1.6-2.9,2.2-6.1,2.4-8C355,1171.5,355,1169,354.3,1164.6z"
						/>
					<path fill="#E2D6BC" d="M315.2,1194.5c0-0.2,0-0.3,0.1-0.5c-3.5-0.2-7.1-0.6-10.6-0.9c0,0.1,0,0.3,0,0.4
						c0,5.2,0.1,10.3,0.3,15.4c2.3,0.6,6.2,1,10.2-0.2C315.3,1204.1,315.3,1199.3,315.2,1194.5z"/>
					<path fill="#D88430" d="M341.4,1144.1h-2.9c0.1,1.6,0.1,3.2,0.2,4.9c0,6.4-1.1,12.8-0.8,19c0.5,11.1,0.5,20.8,0.5,31.4
						c0.7,0,1.4,0,2,0c0.5-0.1,0.9-0.1,1.4-0.1c0.1-0.2,0.1-0.3,0.2-0.5C342,1180.2,342,1151.2,341.4,1144.1z"/>
					<g>
						<path fill="#EA9E42" d="M280,1144.1c0,0,0.8,21.9,0.4,29.6c-0.3,6.2,0.2,17.1,0.1,23c1.7,4.9,15.9,7.3,16.5,7.1
							c10.2,1.5,20.4,0.2,30.6-1.2c4.3-0.6,8.6-1.7,12.8-2.8c0.5-0.2,1-0.4,1.5-0.6c0.1-0.2,0.1-0.4,0.2-0.6
							c-0.2-18.4-0.4-47.5-1-54.6C320.8,1144.1,300.4,1144.1,280,1144.1L280,1144.1z"/>
						<path fill="#D88430" d="M326.2,1201.3c13.1-2.7,10.5-15.3,10.7-18.9c0.4-12.5,0.5-25.3,0.8-38.3c1.3,0,2.6,0,3.8,0
							c0,0-0.7,22-0.4,29.7c0.3,6.2-0.3,19.2-0.1,25.1c-2,0.6-4.1,1.3-6.2,2.1C334.9,1199.4,326.1,1203,326.2,1201.3z"/>
					</g>
					<path fill="#EAB96C" d="M300,1149.4c-3.6-0.1-7.1-0.2-10.7-0.4c-0.8,14.2,0.5,37.3,1.3,48.8c3.5,1.3,11.6,3.1,10.6,0
						C300.4,1195.6,300.5,1153.9,300,1149.4z"/>
					<path fill="#EAB96C" d="M321.4,1144.9c-2.3,0.3-4.6,0.6-6.9,0.8c-1,16.3,0.8,41.5,0.9,53c2.3,0.5,4.7,0.5,7,0
						C322.9,1192,321.9,1148.6,321.4,1144.9z"/>
					<path fill="#F6EEDB" d="M319.2,1146.9c6.9-0.6,20.8-0.9,21.1,2.1c0.4,3.7,4.7,5.5,4.9,2.4c0.1-3.6,4-11-11.8-16.7
						c-16.1-4.2-13.4-2.7-22.1-3.2c-8.8,0.2-4.6-8.9-21.7-1.5c-16.7,9.1-17.2,18.8-9.5,19.8c7.9,0.3,13.1,3.3,19.8,3.3
						C306.5,1153,313.3,1147.3,319.2,1146.9z"/>
					<path fill="#E2D6BC" d="M341.4,1149c-0.4-1.1-0.8-4.1-2-5.3c-3.6-3.6-9.4-5.4-14.5-5.8c-7.4-1-14.5,0.5-21.9,2.9
						c-6.4,2.2-12.9,3.5-19,1.4c-2.8-0.9-4.8-2.5-6-4.5c-4.5,6.7-3.2,10.6,2,11.4c7.9-0.1,13.1,3.4,19.8,3.3
						c6.7-0.2,13.6-6.9,19.4-7.1c6.9-0.5,20.7,0.8,21,3.4c0.2,1.3,1,2.4,1.9,2.9C341.9,1150.8,341.8,1149.9,341.4,1149z"/>
				</g>
			</g>
		</g>
	</g>
	<g id="logo">
		<text transform="matrix(1 0 0 1 312.8961 236.6708)" fill="#0065A8" font-family="'Arial-BoldMT'" font-size="18">R</text>
		
			<path id="path5522" sodipodi:ry="146.1114" sodipodi:rx="146.1114" sodipodi:cy="146.1114" sodipodi:type="arc" sodipodi:cx="146.1114" fill="#FFFFFF" d="
			M324.2,147.5c0,80.9-65.6,146.5-146.5,146.5c-80.9,0-146.5-65.6-146.5-146.5c0,0,0,0,0,0C31.2,66.6,96.8,1,177.7,1
			C258.6,1,324.2,66.6,324.2,147.5C324.2,147.5,324.2,147.5,324.2,147.5z"/>
		
			<path id="path2863" sodipodi:ry="10.880636" sodipodi:rx="10.880636" sodipodi:cy="228.49336" sodipodi:type="arc" sodipodi:cx="288.33688" fill="none" stroke="#0065A8" stroke-width="3" d="
			M329.8,227.8c0,6-4.9,10.9-10.9,10.9s-10.9-4.9-10.9-10.9l0,0c0-6,4.9-10.9,10.9-10.9S329.8,221.8,329.8,227.8z"/>
		<path id="path1877" fill="#0065A8" d="M155.9,292.5c-34.1-5.6-61.3-19.7-84.4-43.9c-19.2-20.1-32-44.5-38-72.6
			c-2.6-12.1-2.6-44.9,0-57C39.9,89.2,52.9,65.3,74.2,44c21.3-21.3,44.1-33.6,74.5-40.1c14.6-3.2,43.6-3.1,58.3,0
			c51.8,11.2,92.8,47.5,109.2,96.7c11,33.2,10.4,66-1.9,99.8c-1.8,4.8-3.5,8.5-3.8,8.2c-0.3-0.3-1.5-14.2-2.6-30.8l-2-30.2
			l-18.6-0.3l-18.6-0.3l-2,7.3l-2,7.3l2.8,0.5l2.8,0.5l-8.9,14c-4.9,7.7-9.1,14.4-9.3,15c-1.1,2.7-1.6-1.7-2.8-22.3l-1.3-22.2h-18.8
			h-18.8l-1.6,5.8c-0.9,3.2-1.8,6.5-2.1,7.5c-0.4,1.3,0.1,1.8,2.1,1.8c1.4,0,2.6,0.3,2.6,0.7c0,0.4-5.5,9.1-12.2,19.5l-12.2,18.8
			l-11.6,0c-10.5,0-11.9-0.2-15-2.2c-4.1-2.7-6.1-7.7-5.2-13.2c1.9-12.5,11.9-23.5,21.4-23.5c3.1,0,3.1,0,2.4,4l-0.7,4h8.5h8.5
			l2.7-9.8c1.5-5.4,2.9-10.6,3.2-11.6c0.5-1.7-0.4-1.8-17.8-1.5c-18.1,0.3-18.4,0.4-24.8,3.4c-7.5,3.5-15,10.6-18.5,17.3
			c-3.3,6.2-3.1,4.6,0.9-9.2L144,147h-12.1h-12.1l-2.1,7.4l-2.1,7.4l3.2,0.3l3.2,0.3l-3.3,11.3c-1.8,6.2-3.4,11.5-3.7,11.7
			c-0.2,0.2-4.1-8.4-8.7-19.1L98,147H86.7H75.3l-2,6.9c-1.1,3.8-2,7.1-2,7.5c0,0.4,1.3,0.6,3,0.6c1.6,0,3,0.2,3,0.5
			c0,0.3-2.9,11-6.4,23.8c-3.5,12.8-6.7,24.5-7.1,26L63,215h9h9l4.4-16.5c2.4-9.1,4.6-16.5,4.9-16.5c0.3,0,3.5,7.3,7.1,16.2
			l6.6,16.2l10.4,0.3l10.4,0.3l4.4-15.8c2.4-8.7,4.7-16.1,5-16.5c0.3-0.4,0.6,3,0.7,7.5c0.1,9.6,2.3,14.9,7.9,19.3
			c6.4,4.9,9.3,5.3,32.7,5.4l21.6,0l3.2-5l3.2-5h13.9h13.9v5v5h11.9h11.9l2.8-5l2.8-5l14.1,0l14.1,0l0.7,5l0.7,5h8.5
			c4.7,0,8.5,0.3,8.5,0.6s-2.1,4-4.6,8.2c-20.8,34.2-55.5,58.8-95.2,67.2C194.5,293.8,168.3,294.6,155.9,292.5z M214.2,189.6
			c0-1.5,14.4-22.4,15.1-22c0.5,0.3,0.9,5.5,0.9,11.5V190h-8C217.8,190,214.2,189.8,214.2,189.6z M273.4,188.2
			c1-2.5,13.5-21.1,14.1-21.2c0.4,0,0.8,2.6,0.8,5.7c0,3.2,0.3,8.1,0.6,11l0.6,5.2h-8.2C276.8,189,273.2,188.7,273.4,188.2z"/>
	</g>
</g>
</svg>
